<svg width="60" height="60" viewBox="0 0 60 60" fill="none" xmlns="http://www.w3.org/2000/svg">
<path d="M50.976 42.1421C50.8758 41.5229 50.4876 40.9937 49.9062 40.6793L41.3052 35.6117L41.2344 35.5721C40.8738 35.3915 40.4755 35.299 40.0722 35.3021C39.3516 35.3021 38.6634 35.5751 38.1858 36.0539L35.6472 38.5937C35.5386 38.6969 35.1846 38.8463 35.0772 38.8517C35.0478 38.8493 32.1234 38.6387 26.7396 33.2543C21.3654 27.8813 21.1374 24.9479 21.1356 24.9479C21.1386 24.7979 21.2862 24.4451 21.3912 24.3359L23.556 22.1717C24.3186 21.4073 24.5472 20.1401 24.0948 19.1585L19.314 10.1627C18.9666 9.44746 18.2916 9.00586 17.5428 9.00586C17.013 9.00586 16.5018 9.22546 16.1022 9.62446L10.2012 15.5123C9.63541 16.0751 9.14821 17.0591 9.04201 17.8511C8.99041 18.2297 7.94341 27.2669 20.3334 39.6587C30.852 50.1761 39.054 50.9933 41.319 50.9933C41.5948 50.9968 41.8706 50.9826 42.1446 50.9507C42.9342 50.8451 43.917 50.3591 44.4792 49.7957L50.3754 43.9001C50.8566 43.4165 51.0762 42.7775 50.976 42.1421Z" fill="#FFFDF6"/>
</svg>
